<svg width="1512" height="260" viewBox="0 0 1512 260" fill="none" xmlns="http://www.w3.org/2000/svg">
<path fill-rule="evenodd" clip-rule="evenodd" d="M407 230.2L469.031 192.95C534.938 153.217 659 76.2345 786.938 46.4347C911 19.1182 1038.94 36.5015 1163 71.2679C1290.94 106.034 1415 153.217 1542.94 163.151C1667 173.084 1794.94 143.284 1856.97 128.384L1919 115.968V260H1856.97C1794.94 260 1667 260 1542.94 260C1415 260 1290.94 260 1163 260C1038.94 260 911 260 786.938 260C659 260 534.938 260 469.031 260H407V230.2Z" fill="#050A64"/>
<path fill-rule="evenodd" clip-rule="evenodd" d="M0 225.868L62.0308 183.203C127.938 137.694 252 49.5197 379.938 15.3878C504 -15.8998 631.938 4.01049 756 43.8311C883.938 83.6517 1008 137.694 1135.94 149.071C1260 160.449 1387.94 126.317 1449.97 109.251L1512 95.029V260H1449.97C1387.94 260 1260 260 1135.94 260C1008 260 883.938 260 756 260C631.938 260 504 260 379.938 260C252 260 127.938 260 62.0308 260H0V225.868Z" fill="#010436"/>
</svg>
