<svg width="28" height="28" viewBox="0 0 28 28" fill="none" xmlns="http://www.w3.org/2000/svg">
<path d="M7.33336 11.3335V20.6668M12.6667 15.3335V20.6668M12.6667 15.3335C12.6667 14.8082 12.7702 14.2881 12.9712 13.8028C13.1722 13.3175 13.4668 12.8765 13.8383 12.5051C14.2097 12.1336 14.6507 11.839 15.136 11.638C15.6213 11.437 16.1414 11.3335 16.6667 11.3335C17.192 11.3335 17.7121 11.437 18.1974 11.638C18.6827 11.839 19.1237 12.1336 19.4951 12.5051C19.8666 12.8765 20.1612 13.3175 20.3622 13.8028C20.5632 14.2881 20.6667 14.8082 20.6667 15.3335V20.6668M12.6667 15.3335V11.3335M7.34403 7.3335H7.33203" stroke="#DD6B20" stroke-linecap="round" stroke-linejoin="round"/>
<path d="M1.33398 14.0002C1.33398 8.0295 1.33398 5.04283 3.18865 3.18816C5.04332 1.3335 8.02865 1.3335 14.0007 1.3335C19.9713 1.3335 22.958 1.3335 24.8127 3.18816C26.6673 5.04283 26.6673 8.02816 26.6673 14.0002C26.6673 19.9708 26.6673 22.9575 24.8127 24.8122C22.958 26.6668 19.9727 26.6668 14.0007 26.6668C8.02998 26.6668 5.04332 26.6668 3.18865 24.8122C1.33398 22.9575 1.33398 19.9722 1.33398 14.0002Z" stroke="#DD6B20" stroke-linecap="round" stroke-linejoin="round"/>
</svg>
