<svg width="241" height="32" viewBox="0 0 241 32" fill="none" xmlns="http://www.w3.org/2000/svg">
<path d="M2.41785 24.861C3.1049 24.5439 3.87489 24.1905 4.61453 23.8549C5.43429 23.4849 6.28942 23.1057 6.96853 22.8083C7.39719 22.6208 7.18442 22.7247 7.47748 22.5978C8.06277 22.3454 8.50972 22.1433 9.13194 21.882C9.33864 21.7955 9.08934 21.9217 9.30548 21.8312C10.4987 21.3335 11.4722 20.9215 12.572 20.4816C15.4041 19.3794 18.2044 18.2438 21.0881 17.6997C21.5567 17.6294 21.8549 17.5958 22.2828 17.6168C22.5235 17.6333 22.7243 17.6722 22.9106 17.7538C23.1794 17.8651 23.3876 18.1152 23.4362 18.3708C23.509 19.4143 22.9032 19.9993 22.5102 20.6277C21.6108 21.8677 20.5958 22.9933 19.6111 24.1453C18.345 25.6639 16.5856 27.4703 15.9785 29.2996C15.931 29.4889 16.0138 29.3894 16.0089 29.4259C15.9731 29.7507 15.9875 29.8073 15.9656 29.8707C15.9511 29.9255 15.9147 29.978 15.9593 30.1236C16.1063 30.6848 17.2553 30.8686 18.1236 30.8455C18.2492 30.8443 18.3807 30.8403 18.5175 30.8335C18.6194 30.8284 18.7244 30.8217 18.8324 30.8133C19.0482 30.7966 19.2759 30.7734 19.5142 30.7439C19.7506 30.7146 20.0074 30.6776 20.2534 30.6375C20.4529 30.6044 20.657 30.5676 20.8642 30.5276C21.5855 30.3836 20.8261 30.4027 21.5908 30.3236C21.6452 30.3175 21.4635 30.4216 21.6751 30.3863C21.9028 30.3488 22.3164 30.2624 22.6006 30.1974C22.8907 30.1318 23.1819 30.0611 23.3546 30.0223C24.0271 29.87 24.144 29.8396 24.832 29.6605C25.7489 29.4197 26.671 29.1959 27.6746 28.8813C27.8843 28.815 27.5833 28.8264 27.9174 28.7128C28.0436 28.6699 28.2512 28.605 28.4817 28.5347C28.8264 28.4295 29.2205 28.3159 29.4003 28.2728C29.6888 28.2036 29.5856 28.2987 29.6398 28.2968C30.0854 28.2848 31.0209 27.8289 31.1474 27.7854C33.424 27.0162 35.4514 26.5004 37.5798 25.8572C39.2238 25.3596 40.9601 24.799 42.5235 24.3343C44.4146 23.7725 45.9559 23.3651 47.7872 22.813C47.9796 22.7551 47.7224 22.7144 47.9574 22.6432C50.4072 21.9008 52.8872 21.1811 55.3753 20.5414C55.6262 20.477 55.3346 20.6708 55.587 20.6126C57.1376 20.251 59.5733 19.7801 60.3582 19.0655C61.396 18.7875 62.6355 18.4546 63.5854 18.2875C64.1966 18.1802 63.6513 18.459 64.3685 18.2041C64.5304 18.1467 64.2873 18.1049 64.5323 18.0264C65.5712 17.6938 66.6974 17.4152 67.714 17.075C67.9201 17.0057 67.8373 16.9283 67.892 16.895C68.3525 16.6198 69.2462 16.615 69.4324 16.5817C70.8423 16.3253 71.8287 16.0042 73.1166 15.6578C73.4153 15.5776 73.0278 15.5446 73.314 15.4627C74.8042 15.0383 76.3346 14.6387 77.8133 14.3086C78.1418 14.2357 77.8724 14.4269 78.0308 14.3978C78.7292 14.2688 78.8271 14.0163 79.4925 13.8901C79.6329 13.8632 79.5803 13.9801 79.6083 13.9841C80.0454 14.0471 80.3267 13.7217 80.4267 13.6898C81.6914 13.2827 82.5795 13.3173 83.8134 12.9635C83.9606 12.921 83.5945 12.883 84.0103 12.7709C86.7818 12.0235 89.7417 11.3188 92.531 10.7491C92.9648 10.6603 92.6809 10.8301 92.7108 10.8353C93.1961 10.9119 93.4216 10.5974 93.5596 10.5542C94.6493 10.2206 95.7321 10.1823 96.4149 9.70985C100.197 8.9029 103.936 7.96131 107.711 7.25456C108.643 7.0802 109.575 6.92039 110.509 6.78068C110.569 6.77139 110.488 6.91707 110.608 6.89801C112.048 6.6712 111.736 6.53615 112.636 6.10758C112.863 5.9998 113.646 6.1363 113.714 6.14427C113.964 6.17369 113.758 6.40621 113.84 6.40525C114.51 6.39143 114.283 5.80487 115.157 5.63138C115.185 5.62698 115.092 5.76145 115.168 5.75804C115.402 5.74783 115.619 5.65891 115.849 5.65363C116.376 5.64294 116.618 5.90122 117.366 5.57839C117.461 5.53715 117.243 5.22173 118.03 5.08812C118.344 5.03459 119.723 4.76852 120.113 4.71978C120.503 4.67045 120.259 4.83014 120.287 4.82983C121.352 4.78408 120.971 4.91727 121.533 5.03744C122.096 5.15701 121.857 4.67011 122.06 4.57408C122.264 4.478 123.051 4.46095 123.247 4.46946C123.442 4.47783 123.22 4.58956 123.391 4.58348C124.525 4.54171 123.832 4.2432 124.182 4.09774C125.008 3.75524 125.742 4.01984 126.541 3.92235C126.757 3.89619 126.567 3.83953 126.757 3.79936C127.506 3.64191 127.979 3.68429 128.817 3.43733C128.954 3.39681 129.609 3.05944 130.081 3.15493C130.149 3.16876 129.982 3.2911 130.309 3.26091C130.797 3.21582 131.668 3.10127 132.18 2.99174C132.558 2.9108 132.097 2.82348 132.585 2.79869C132.801 2.78788 132.42 2.93706 132.825 2.90927C133.229 2.88141 134.244 2.72772 134.628 2.66945C135.018 2.61011 134.788 2.52521 134.818 2.51286C135.003 2.44051 135.743 2.27929 135.809 2.27048C139.128 1.79476 142.208 1.60882 145.459 1.20632C145.714 1.17523 145.532 1.07524 145.57 1.06928C146.437 0.931385 145.782 1.31331 146.401 1.35594C146.289 1.12709 146.652 1.13347 147.26 1.0487C147.553 1.00782 147.384 0.93155 147.41 0.91958C147.83 0.739453 148.159 0.890653 148.241 0.91994C148.547 1.02768 148.851 0.840146 149.058 0.912491C149.265 0.984018 148.82 1.15647 149.411 1.10244C149.57 1.00409 149.111 0.822577 149.557 0.748416C151.228 0.465024 154.423 0.417078 155.769 0.366111C157.123 0.310746 157.579 0.277856 158.37 0.273948C159.8 0.271375 159.271 0.137138 160.151 0.0398604C161.043 -0.0542221 160.62 0.333206 160.751 0.410297C160.88 0.487395 161.017 0.400767 161.175 0.441059C161.333 0.481292 160.995 0.54455 161.364 0.551815C161.734 0.55798 162.734 0.397511 162.862 0.313752C163.134 0.134742 162.682 -0.0465506 163.649 0.0109125C163.705 0.0143856 163.526 0.112217 163.738 0.120588C165.2 0.17513 166.746 0.199943 168.199 0.280515C168.432 0.293228 168.664 0.306967 168.895 0.32201C169.129 0.337393 168.917 0.434499 169.053 0.444548C170.465 0.55093 169.964 0.363502 170.745 0.200418C170.563 0.447556 170.982 0.614841 172.057 0.656247C172.702 0.68204 172.596 0.569279 173.016 0.51082C173.142 0.493263 173.594 0.58739 173.678 0.540712C173.959 0.388837 173.535 0.182411 174.64 0.312133C174.688 0.31809 174.529 0.39963 174.697 0.41363C175.781 0.505286 175.919 0.342853 177.089 0.393653C178.011 0.433945 179.634 0.643363 180.677 0.736184C180.638 0.991102 181.629 1.00199 182.041 0.860013C182.717 0.919575 183.447 0.969432 184.102 1.04862C184.327 1.07573 184.173 1.13417 184.201 1.14427C184.627 1.30082 184.934 1.16233 185.081 1.16901C186.661 1.24706 187.948 1.48937 189.465 1.52928C189.519 1.53061 189.622 1.38173 190.015 1.53954C190.04 1.55008 189.534 1.56954 190.244 1.64942C190.953 1.72975 192.278 1.95545 193.273 1.99956C193.513 2.00969 194.127 1.96092 194.596 2.11175C194.659 2.13205 194.583 2.16548 194.674 2.19988C194.968 2.30961 195.15 2.18327 195.489 2.34987C195.829 2.51682 196.548 2.69224 197.547 2.73308C197.579 2.73457 197.83 2.6536 198.142 2.69586C198.641 2.76307 199.342 2.87807 199.857 2.94638C200.103 2.97908 199.954 2.89219 199.997 2.89674C201.683 3.08992 202.853 3.31601 204.637 3.60476C204.958 3.6563 205.917 3.72185 206.541 3.88299C207.225 4.05847 206.468 4.22279 208.071 4.40071C208.728 4.4724 209.588 4.27627 210.717 4.63795C212.964 4.97562 215.025 5.41883 217.267 5.7903C217.364 5.80624 217.701 5.79774 217.939 5.84529C218.293 5.91567 218.48 5.98509 218.729 6.0359C219.76 6.24649 220.756 6.42009 221.746 6.62863C222.129 6.70923 221.992 6.71002 222.453 6.80683C222.912 6.90345 223.225 6.93284 223.831 7.07927C224.298 7.19236 224.761 7.35977 225.373 7.4977C225.412 7.44136 225.823 7.531 226.596 7.68745C226.743 7.71719 226.591 7.6622 226.661 7.67531C226.944 7.72855 227.198 7.80309 227.462 7.85231C227.526 7.86435 227.534 7.84665 227.586 7.85557C228.031 7.93035 228.78 8.14876 228.9 8.18322C229.381 8.32191 229.594 8.35001 229.978 8.45135C230.353 8.55 229.787 8.42712 230.225 8.53676C231.118 8.75962 232.29 9.04111 233.183 9.26613C233.555 9.35953 233.305 9.28168 233.358 9.29471C234.125 9.48597 234.856 9.68842 235.292 9.78105C235.805 9.9748 235.72 9.88692 236.812 10.1974C236.896 10.2214 236.999 10.2688 236.673 10.1845C236.341 10.0986 235.857 9.9626 235.409 9.8521C235.305 9.82569 234.672 9.69142 234.59 9.67362C233.948 9.5284 233.86 9.45677 233.828 9.44525C233.439 9.31505 232.681 9.16317 232.488 9.12053C231.576 8.91194 230.823 8.7251 230.055 8.55842C229.547 8.44824 229.498 8.49063 229.111 8.40304C227.813 8.11258 227.395 7.92982 226.144 7.74101C225.875 7.70139 226.116 7.82651 225.2 7.57747C225.143 7.56243 224.458 7.3625 224.04 7.31421C223.987 7.30826 223.984 7.33176 223.915 7.31999C223.469 7.24365 223.18 7.16606 222.688 7.07865C222.196 6.99122 221.599 6.89118 221.051 6.77747C220.718 6.70854 220.294 6.57478 220.134 6.53073C219.677 6.40447 219.188 6.37694 218.916 6.27777C218.642 6.17677 219.211 6.21125 218.473 6.03715C218.43 6.10996 218.351 6.1784 218.291 6.24934C216.649 5.94788 215.05 5.63922 213.407 5.3675C213.201 5.33382 213.402 5.41924 213.182 5.38477C212.249 5.23964 211.47 5.07511 210.497 4.93739C209.754 4.83275 208.941 4.77031 208.155 4.67061C207.692 4.47367 206.553 4.34824 205.709 4.21658C205.414 4.17037 205.439 4.13741 205.231 4.09582C204.457 3.94154 204.805 4.11335 204.588 4.10246C203.654 4.05832 203.612 3.7692 202.515 3.62499C202.458 3.61678 201.733 3.6769 201.634 3.6747C201.007 3.65809 201.54 3.60722 201.154 3.54531C200.448 3.43268 199.955 3.32963 199.125 3.27506C198.882 3.25885 198.288 3.2921 197.825 3.15565C197.764 3.13767 197.805 3.08635 197.756 3.07709C196.854 2.91363 196.817 3.08901 196.294 3.09152C195.772 3.09479 194.987 2.88281 194.828 2.82796C194.413 2.68643 195.16 2.82362 195.184 2.81705C195.468 2.73796 194.881 2.69055 194.437 2.63209C194.395 2.44369 193.775 2.38481 193.98 2.57267C194.004 2.59318 194.35 2.61393 194.437 2.63209C194.029 2.76671 193.347 2.72102 192.61 2.47107C192.265 2.35404 192.608 2.29352 191.53 2.21658C191.044 2.18263 191.217 2.33324 190.785 2.32714C189.796 2.3143 188.527 2.07011 187.515 2.00139C187.147 1.97674 187.498 2.0841 187.246 2.07018C186.577 2.03418 185.988 1.92701 185.32 1.90407C185.259 1.90214 185.4 1.99579 185.192 1.98064C183.611 1.86817 182.242 1.71688 180.588 1.61021C179.788 1.55805 178.365 1.52525 177.534 1.47298C176.107 1.38184 174.342 1.16817 173.121 1.15576C172.322 1.1476 172.493 1.2494 172.148 1.30281C171.481 1.40725 170.323 1.14878 170.166 1.10877C170.161 1.10724 170.849 1.10349 170.484 1.04362C170.274 0.934008 170.174 1.10847 170.166 1.10877C170.064 1.08238 168.69 1.02726 168.416 1.04158C168.267 1.04893 168.348 1.14399 168.27 1.14614C168.239 1.14697 168.208 1.14779 168.177 1.1486C166.411 1.19683 164.557 1.22733 162.761 1.22071C162.728 1.21942 162.776 1.10914 162.699 1.10743C161.627 1.08121 160.922 1.23774 160.044 1.35212C159.169 1.46677 158.467 1.47441 157.933 1.30661C157.266 1.36374 156.282 1.33305 155.74 1.31359C155.188 1.29435 155.124 1.52342 155.076 1.53091C153.584 1.77288 152.663 1.7139 151.116 1.823C150.374 1.87468 148.895 2.04374 148.082 2.15094C147.447 2.23461 147.064 2.21892 146.481 2.31556C146.402 2.32861 146.493 2.42406 146.469 2.43063C145.828 2.62503 146.116 2.33713 145.976 2.30608C145.469 2.19373 145.156 2.13712 144.32 2.31053C144.128 2.35006 143.598 2.78579 143.254 2.84924C142.803 2.93134 142.959 2.77753 142.485 2.86772C142.445 2.87537 142.463 2.95639 142.168 2.98914C140.8 3.14197 139.276 3.2925 137.866 3.49649C137.672 3.52426 137.939 3.6221 137.659 3.6646C136.348 3.86361 134.884 4.07384 133.605 4.20527C133.287 4.23754 133.471 4.11346 133.398 4.09602C132.953 3.99116 132.393 4.32938 132.295 4.34969C129.95 4.83971 128.145 4.90972 125.759 5.43541C125.63 5.46387 124.681 5.90697 124.196 5.75771C124.163 5.74793 123.68 5.5918 123.318 5.82318C123.296 5.83766 123.593 5.90875 123.111 5.98352C122.629 6.05829 121.87 6.2814 121.184 6.27155C120.969 6.26833 120.434 6.12456 119.848 6.42977C119.81 6.45017 118.932 7.05758 118.533 6.83097C118.468 6.79357 118.467 6.47161 117.755 6.77472C117.619 6.83318 117.89 6.85221 117.524 6.96828C116.963 7.14679 116.189 7.21264 115.517 7.49083C115.399 7.53967 114.921 7.85473 114.471 7.77904C114.401 7.76719 114.504 7.63828 114.281 7.67126C113.221 7.82742 112.129 8.12419 111.054 8.27361C110.672 8.32705 110.83 8.11894 110.428 8.15629C110.025 8.1936 109.224 8.31779 108.828 8.48225C108.433 8.64673 108.94 8.818 108.328 8.97117C108.249 8.99085 108.171 9.01032 108.092 9.0296C105.513 9.66249 102.908 10.0852 100.317 10.6534C99.9206 10.7404 100.27 10.7603 99.688 10.8955C97.5395 11.3933 93.8603 12.3536 91.951 12.6056C90.4219 12.8068 92.2678 12.2316 91.113 12.443C90.5558 12.5458 90.0365 12.9938 89.9064 13.0356C88.6372 13.4481 87.702 13.5371 86.5476 13.8676C86.3092 13.9359 86.5757 13.9987 86.3725 14.0555C85.6789 14.2502 84.9315 14.3797 84.2677 14.5571C83.9699 14.6369 84.0488 14.7151 83.7708 14.7775C83.1061 14.9279 82.5126 15.0368 81.8479 15.1146C81.7874 15.1218 82.1528 14.9074 81.6641 15.0274C80.8726 15.2222 79.8759 15.3886 78.9902 15.7098C78.7271 15.8056 78.7706 16.0145 78.1536 16.022C78.0243 16.0237 78.1139 15.7363 77.4958 16.125C77.3915 16.1903 76.336 16.7705 75.7334 16.7308C75.5743 16.7205 75.1481 16.6181 74.8343 16.7344C74.7919 16.7509 74.9964 16.814 74.7319 16.8948C73.7931 17.1795 72.7989 17.4296 71.8399 17.7203C71.5839 17.7981 71.999 17.8074 71.6166 17.9196C70.5691 18.2271 69.2299 18.5536 68.1834 18.7978C67.7976 18.8876 68.037 18.7263 68.0064 18.7239C67.5152 18.6844 67.3108 18.9714 67.1661 19.0237C66.2663 19.3466 65.5388 19.4353 64.6903 19.6943C64.4569 19.7653 64.652 19.8209 64.6076 19.8427C64.1463 20.0623 64.4576 19.7829 64.1447 19.8465C63.2682 20.0242 62.315 20.2939 61.4557 20.5432C61.1397 20.6351 61.5303 20.6516 61.2436 20.7333C59.5383 21.2216 57.7968 21.6886 56.1164 22.0895C55.8004 22.1646 55.9728 22.0249 55.9021 22.0236C55.4142 22.0132 54.812 22.3812 54.6665 22.4403C54.0051 22.7109 53.7188 22.7105 53.1218 22.8925C50.1748 23.7899 46.5153 24.769 43.7289 25.5323C40.0745 26.5322 37.2747 27.2629 33.7887 28.2842C33.5702 28.348 33.8177 28.3753 33.6298 28.4312C32.0628 28.8944 30.4148 29.3554 28.8591 29.798C27.9333 30.0627 27.0638 30.3021 26.2463 30.5221C26.0527 30.5738 26.3528 30.5799 26.044 30.6645C25.4942 30.817 24.4352 31.0713 23.7883 31.1867C23.4573 31.2474 23.8814 31.0863 23.5503 31.1483C22.8502 31.2764 21.8662 31.4697 21.0849 31.6038C20.7511 31.661 21.267 31.6579 20.8347 31.7245C19.1923 31.9028 17.799 32.304 15.8526 31.5212C15.5904 31.3807 15.3649 31.2017 15.1849 30.9641C14.9849 30.7026 14.8706 30.3852 14.8384 30.0828C14.78 29.5365 14.9434 29.0278 15.1074 28.6386C15.4695 27.8119 15.9363 27.1804 16.442 26.5297C16.5897 26.3433 16.7884 26.2869 17.0611 25.907C17.0561 25.8586 17.0233 25.8351 17.0042 25.8006C18.4433 24.0126 20.0371 22.411 21.431 20.7248C21.7926 20.2795 22.1061 19.8787 22.3904 19.412C22.5074 19.223 22.6486 18.9407 22.694 18.7685C22.7183 18.6949 22.7324 18.5669 22.7238 18.5314C22.7155 18.4864 22.7163 18.4805 22.6819 18.4471C22.582 18.3707 22.4189 18.3221 22.1072 18.3078C21.907 18.2982 21.6561 18.3085 21.3557 18.3433C20.8031 18.4096 20.3501 18.499 19.7158 18.6501C19.5555 18.6883 19.8449 18.662 19.5314 18.7374C17.4648 19.2597 15.5439 19.9293 13.5252 20.6186C13.3119 20.6931 13.41 20.6008 12.7726 20.8455C12.6082 20.9083 11.8168 21.21 11.585 21.3085C11.5551 21.3213 11.7207 21.2817 11.4424 21.3869C10.6399 21.69 9.71817 22.0448 8.83563 22.3886C8.04256 22.6954 7.20923 23.0222 6.35743 23.3614C6.08189 23.4713 6.37022 23.3414 6.17363 23.4201C4.67395 24.0255 3.41265 24.5493 2.07646 25.1039C1.19799 25.4704 1.51969 25.3295 1.04532 25.5286C0.978975 25.5566 0.419201 25.7982 0.388771 25.8109C0.313553 25.8423 0.584363 25.7195 0.471945 25.7668C0.454341 25.7743 0.000713962 25.9797 0 25.9801C0 25.9801 0 25.9801 0 25.9801C-4.37347e-06 25.9801 0.0397533 25.9621 0.141418 25.9158C0.173588 25.9011 0.716476 25.6538 0.847004 25.5933C0.938611 25.5509 0.772644 25.625 0.959367 25.5385C1.1456 25.4519 1.35083 25.36 1.65399 25.2197C1.95527 25.0799 1.82417 25.1353 2.41785 24.861ZM153.24 1.24201C152.717 1.17081 152.67 1.57485 153.22 1.43821C153.246 1.43115 153.267 1.24541 153.24 1.24201ZM215.075 5.52468C214.435 5.33817 213.962 5.36456 214.417 5.50007C214.872 5.63383 215.271 5.58064 215.075 5.52468ZM221.933 6.77643C221.176 6.57918 221.023 6.73199 221.846 6.85649C221.896 6.86406 221.979 6.78804 221.933 6.77643ZM3.18333 24.6109C3.17733 24.613 2.80074 24.7733 2.79127 24.7777C2.59295 24.8685 3.34717 24.5494 3.18333 24.6109ZM228.712 8.19971C228.478 8.12941 227.773 7.98824 228.07 8.07664C228.312 8.14715 229.005 8.28643 228.712 8.19971ZM126.598 4.13119C126.589 4.12603 126.293 4.17033 126.305 4.20603C126.346 4.32069 126.75 4.2176 126.598 4.13119ZM240.09 11.1436C238.425 10.6544 237.421 10.3439 239.237 10.8786C239.573 10.9778 238.51 10.6696 238.939 10.7974C239.714 11.0251 240.233 11.1773 240.984 11.4156C241.126 11.4582 240.2 11.174 240.087 11.1427C240.088 11.143 240.089 11.1433 240.09 11.1436ZM152.91 0.78582C152.899 0.781187 152.484 0.806082 152.474 0.812146C152.259 0.955098 153.095 0.904327 152.91 0.78582ZM109.453 7.12798C109.429 7.12003 108.488 7.30727 108.46 7.32546C108.02 7.65794 109.92 7.28003 109.453 7.12798ZM180.693 0.744225C181.151 0.676219 181.691 0.707173 182.039 0.859726C181.594 0.818398 181.143 0.783413 180.693 0.744225Z" fill="#DD6B20"/>
</svg>
