<svg width="40" height="32" viewBox="0 0 40 32" fill="none" xmlns="http://www.w3.org/2000/svg">
<path d="M34.9671 0H5.03268C3.69793 0 2.41785 0.530228 1.47404 1.47404C0.530228 2.41785 0 3.69793 0 5.03268V26.9148C0 28.2495 0.530228 29.5296 1.47404 30.4734C2.41785 31.4172 3.69793 31.9475 5.03268 31.9475H34.9671C36.3018 31.9475 37.5819 31.4172 38.5257 30.4734C39.4695 29.5296 39.9998 28.2495 39.9998 26.9148V5.03268C39.9998 3.69793 39.4695 2.41785 38.5257 1.47404C37.5819 0.530228 36.3018 0 34.9671 0ZM5.03268 2.01307H34.9671C35.7289 2.01136 36.4629 2.29959 37.0199 2.81927C37.577 3.33895 37.9154 4.05113 37.9666 4.81124C32.9943 7.4685 28.0018 10.1056 23.0094 12.7629C22.3351 13.1881 21.6203 13.5455 20.8756 13.8298C20.2916 13.9455 19.6897 13.9352 19.11 13.7999C18.5303 13.6645 17.9861 13.407 17.5137 13.0447C14.6552 11.5349 11.7966 10.005 8.95818 8.49517C6.66327 7.28732 4.32811 6.05935 2.0332 4.83138C2.07942 4.06768 2.41572 3.35051 2.9733 2.8266C3.53088 2.3027 4.26759 2.01168 5.03268 2.01307ZM37.9867 26.9148C37.9867 27.7156 37.6686 28.4837 37.1023 29.05C36.536 29.6163 35.7679 29.9344 34.9671 29.9344H5.03268C4.23183 29.9344 3.46378 29.6163 2.8975 29.05C2.33121 28.4837 2.01307 27.7156 2.01307 26.9148V7.11621C6.76393 9.61242 11.4946 12.1489 16.2455 14.6652C17.0941 15.1861 18.0079 15.5922 18.9631 15.8731C20.361 16.1007 21.7938 15.807 22.9893 15.0477C25.9083 13.5178 28.8071 11.9677 31.726 10.4378C33.8196 9.31046 35.8931 8.2234 37.9867 7.11621V26.9148Z" fill="#DD6B20"/>
</svg>
