<svg width="28" height="28" viewBox="0 0 28 28" fill="none" xmlns="http://www.w3.org/2000/svg">
<path d="M14.0003 27.0664C12.2843 27.0664 10.5852 26.7285 8.99986 26.0718C7.41454 25.4151 5.97408 24.4527 4.76073 23.2393C3.54738 22.0259 2.5849 20.5855 1.92823 19.0002C1.27157 17.4148 0.933594 15.7157 0.933594 13.9998C0.933594 12.2838 1.27157 10.5847 1.92823 8.99938C2.5849 7.41405 3.54738 5.9736 4.76073 4.76024C5.97408 3.54689 7.41454 2.58441 8.99986 1.92775C10.5852 1.27108 12.2843 0.933105 14.0003 0.933105C17.4658 0.933106 20.7893 2.30977 23.2398 4.76024C25.6903 7.21072 27.0669 10.5343 27.0669 13.9998C27.0669 17.4653 25.6903 20.7888 23.2398 23.2393C20.7893 25.6898 17.4658 27.0664 14.0003 27.0664ZM14.0003 27.0664V12.1331C14.0003 11.143 14.3936 10.1934 15.0937 9.49324C15.7939 8.7931 16.7435 8.39977 17.7336 8.39977H18.6669M9.33359 15.8664H18.6669" stroke="#DD6B20"/>
</svg>
