<svg width="682" height="79" viewBox="0 0 682 79" fill="none" xmlns="http://www.w3.org/2000/svg">
<path d="M10.6708 40.7305C16.9189 39.9813 25.3122 39.082 31.5203 38.4831C33.493 38.2921 32.4945 38.3986 33.8601 38.2688C36.532 38.0165 39.0594 37.7775 41.6545 37.5495C42.5224 37.4737 41.4436 37.5881 42.354 37.5087C47.334 37.0758 52.1701 36.6695 57.2035 36.2808C82.2591 34.3596 106.943 33.0338 132.362 32.0971C140.726 31.7879 150.919 31.5241 159.601 31.2928C160.606 31.2657 160.006 31.2263 160.197 31.2172C163.189 31.077 162.179 31.2107 164.146 31.1814C172.053 31.0639 180.767 30.9376 188.186 30.8482C191.392 30.8107 188.161 30.714 191.438 30.7574C191.665 30.7605 190.841 30.8325 191.732 30.8333C193.762 30.8343 197.521 30.8066 199.023 30.8097C201.898 30.8154 202.547 30.815 205.352 30.821C209.171 30.8305 213.76 30.8965 217.902 30.9337C218.772 30.9412 217.624 30.8511 219.007 30.8564C220.331 30.8594 224.132 30.929 225.409 30.9752C226.673 31.0194 226.132 31.0691 226.355 31.0877C228.196 31.2423 232.34 31.1913 233.007 31.2097C242.968 31.5145 251.931 31.7665 261.138 33.3448C261.279 33.3737 261.625 33.449 261.879 33.5118C262.144 33.5768 262.391 33.6434 262.618 33.7118C262.845 33.7802 263.052 33.8505 263.24 33.9235C263.455 34.014 263.502 34.0092 263.918 34.2512C264.222 34.4454 264.491 34.6857 264.544 35.0806C264.576 35.4769 264.394 35.7118 264.179 35.9212C264.069 36.0241 263.941 36.1173 263.796 36.2076C263.723 36.2527 263.645 36.2969 263.562 36.3407C263.481 36.384 263.382 36.4322 263.359 36.443C263.199 36.5199 263.022 36.5961 262.828 36.6724C260.904 37.378 259.423 37.6661 257.376 38.0857C253.973 38.7569 249.911 39.34 246.858 39.7388C238.507 40.8108 231.825 41.4209 223.989 42.1678C223.128 42.2486 224.15 42.2662 223.093 42.3654C222.05 42.4629 220.986 42.5606 219.901 42.6586C209.806 43.571 200.151 44.4495 190.588 45.2975C189.554 45.389 190.875 45.1567 189.842 45.2416C182.92 45.8191 172.749 46.6225 168.798 47.5102C164.654 47.9209 158.713 48.5381 155.016 48.8524C152.541 49.0653 154.973 48.672 151.714 49.0893C150.98 49.1837 151.945 49.1809 150.849 49.3143C146.422 49.8552 141.282 50.4297 137.118 51.0152C136.706 51.0733 136.531 51.1229 136.442 51.1622C136.356 51.2013 136.357 51.2299 136.22 51.2562C133.864 51.6975 130.454 51.926 129.728 52.0121C123.709 52.8125 119.011 53.2409 114.254 54.8988C114.215 54.9181 114.32 54.9068 114.318 54.6599C114.283 54.4618 114.224 54.4568 114.227 54.4403C114.224 54.4225 114.233 54.4082 114.258 54.407C114.285 54.4072 114.333 54.4345 114.298 54.38C114.286 54.357 114.252 54.3356 114.306 54.3569C114.403 54.3924 114.43 54.3954 114.528 54.4216C120.629 55.1656 127.426 54.7054 133.829 54.6105C135.17 54.5757 133.939 54.7359 134.583 54.7249C137.419 54.6719 138.356 54.4129 141.073 54.3384C141.647 54.322 141.328 54.436 141.434 54.4421C143.082 54.5385 144.58 54.2215 145.028 54.1938C150.732 53.8345 154.219 53.8924 159.552 53.5394C160.18 53.497 158.754 53.4553 160.523 53.3434C172.605 52.5763 185.345 51.7148 197.18 50.9281C199.034 50.8043 197.719 51.0016 197.836 51.0048C199.754 51.049 200.993 50.7011 201.609 50.6444C206.505 50.2007 210.693 50.0835 214.007 49.5157C230.064 48.3177 246.51 46.8132 262.351 45.4901C266.439 45.1475 270.243 44.8382 274.185 44.53C274.438 44.5099 273.997 44.6768 274.502 44.6362C280.61 44.1439 279.43 44.0558 283.513 43.4355C284.597 43.2742 287.604 43.2816 287.888 43.2759C288.876 43.2611 287.876 43.5429 288.206 43.527C290.942 43.3877 290.432 42.8158 294.148 42.463C294.264 42.453 293.786 42.6126 294.099 42.5941C295.074 42.5371 296.036 42.4001 296.997 42.3476C299.199 42.2279 300.006 42.4518 303.383 41.9511C303.608 41.9175 303.525 41.8234 303.886 41.6964C304.227 41.5801 304.956 41.4339 306.619 41.2844C308.045 41.1529 314.021 40.6018 315.605 40.4903C317.218 40.3726 316.121 40.5805 316.237 40.5753C320.547 40.3538 318.915 40.5565 321.042 40.5987C322.075 40.623 322.506 40.5124 322.753 40.3819C322.997 40.2518 323.063 40.1012 323.542 40.0338C324.515 39.8963 327.897 39.7577 328.698 39.7421C329.51 39.7242 328.507 39.8698 329.227 39.8405C333.944 39.6546 331.269 39.4345 332.796 39.2436C334.575 39.0224 336.124 38.968 337.607 38.9508C339.233 38.9246 340.954 38.927 342.661 38.8509C343.591 38.8097 342.829 38.7642 343.652 38.7113C346.921 38.5075 348.629 38.5434 352.215 38.2959C352.871 38.2514 355.984 37.917 357.863 38.0439C358.13 38.062 357.378 38.173 358.723 38.1645C359.723 38.159 361.092 38.1484 362.42 38.1409C363.827 38.1314 365.527 38.1266 366.617 38.1182C368.262 38.1082 366.397 37.9346 368.433 38.0061C369.321 38.0409 367.678 38.1055 369.338 38.1652C370.207 38.1978 371.416 38.23 373.047 38.2947C374.698 38.3598 376.203 38.4468 377.004 38.4997C378.588 38.6078 377.726 38.4313 377.857 38.4321C378.253 38.4388 379.13 38.4821 380.012 38.5479C381.065 38.6288 381.959 38.7244 382.103 38.7424C385.534 39.2189 388.873 39.6202 392.126 41.4379C392.296 41.5433 392.457 41.651 392.607 41.7611C392.766 41.8763 393.007 42.071 393.176 42.2339C393.532 42.5735 393.804 42.9354 393.992 43.3178C394.418 44.0913 394.343 45.2707 394.026 45.9894C393.304 47.6943 392.086 48.8203 390.747 49.9918C385.545 54.2244 379.414 57.2019 373.279 60.2379C372.307 60.708 373.007 60.5041 372.859 60.5769C369.516 62.2086 372.017 60.6888 369.654 61.6715C370.088 61.7323 368.709 62.3303 366.336 63.4175C365.192 63.9405 365.856 63.7454 365.754 63.8009C364.115 64.6797 362.856 65.0267 362.537 65.1251C361.357 65.4886 360.196 66.1573 359.381 66.4048C358.573 66.6494 360.298 65.7774 357.999 66.7496C357.389 67.0974 359.177 66.5848 357.449 67.3483C350.925 70.2761 338.496 74.87 333.188 77.1993C333.059 77.2573 332.939 77.3122 332.828 77.364C332.717 77.4151 332.484 77.5265 332.344 77.5961C332.039 77.7481 331.819 77.8708 331.679 77.9625C331.662 77.9739 331.646 77.9848 331.631 77.9951C331.579 78.0312 331.527 78.0765 331.517 78.0895C331.499 78.1066 331.548 78.0775 331.523 77.972C331.485 77.8694 331.424 77.8718 331.448 77.8758C331.479 77.8839 331.542 77.8896 331.636 77.8878C331.824 77.8846 332.114 77.8528 332.481 77.7955C333.149 77.6921 333.992 77.5218 334.927 77.3185C336.107 77.0614 337.274 76.7904 338.86 76.4157C339.149 76.3478 339.456 76.2755 339.787 76.1964C345.803 74.7134 343.327 75.1816 347.035 74.1144C350.728 73.029 348.966 73.8993 349.526 73.829C350.035 73.7712 350.553 73.541 351.195 73.4071C351.838 73.2727 350.483 73.7095 351.978 73.307C353.579 72.876 357.46 71.622 357.987 71.3842C359.073 70.89 357.108 71.2635 361.203 70.1548C361.432 70.0929 360.73 70.3953 361.581 70.1606C368.266 68.3123 375.725 66.1353 382.364 64.2605C383.314 63.9919 382.495 64.3384 383.049 64.1828C388.932 62.5294 386.673 63.0104 389.754 61.9132C389.139 62.3559 390.844 62.0175 395.275 60.7235C397.868 59.9669 397.365 60.001 399.014 59.441C399.506 59.274 401.365 58.8094 401.689 58.6629C402.757 58.1811 400.927 58.5197 405.498 57.2715C405.699 57.2166 405.085 57.4876 405.78 57.2918C410.086 56.0813 410.556 55.7689 415.346 54.3702C419.004 53.3014 425.706 51.4886 429.893 50.3163C429.871 50.5891 433.824 49.4026 435.414 48.7736C438.204 47.9926 441.13 47.1597 443.782 46.4418C444.696 46.1943 444.116 46.4304 444.233 46.4056C446.029 46.0271 447.187 45.5337 447.782 45.3615C454.222 43.5043 459.471 42.1805 465.585 40.397C465.801 40.3339 466.109 40.0859 467.778 39.753C467.886 39.7318 465.879 40.3506 468.766 39.5732C471.658 38.795 477.158 37.3987 481.138 36.2696C482.104 35.9947 484.537 35.2265 486.548 34.7943C486.816 34.7369 486.537 34.8538 486.925 34.7758C488.183 34.5211 488.807 34.2055 490.278 33.9486C491.748 33.6922 494.765 32.9927 498.817 31.8593C498.946 31.8235 499.884 31.466 501.165 31.1393C503.197 30.6202 506.094 29.9044 508.226 29.3641C509.247 29.1054 508.578 29.2066 508.754 29.1606C515.628 27.3901 520.507 26.2401 527.891 24.4745C529.243 24.1506 533.109 23.1409 535.741 22.5833C538.633 21.9709 535.735 22.9349 542.335 21.3151C544.998 20.6625 548.307 19.5587 553.133 18.6465C562.46 16.5109 571.111 14.7291 580.463 12.7885C580.887 12.7004 582.215 12.3611 583.21 12.1652C584.688 11.8739 585.503 11.747 586.555 11.5433C590.934 10.6973 595.019 9.90038 599.275 9.13212C600.889 8.84159 600.331 8.97048 602.25 8.6286C604.152 8.29157 605.467 8.02363 608.101 7.58985C610.09 7.26361 612.081 6.99624 614.687 6.57692C614.776 6.49923 616.558 6.20558 619.81 5.68498C620.431 5.58586 619.761 5.6688 620.055 5.62095C621.25 5.42638 622.355 5.27552 623.481 5.09672C623.755 5.05333 623.765 5.03284 623.989 4.99659C625.896 4.68552 628.992 4.28991 629.573 4.21651C631.679 3.94947 632.651 3.79782 634.248 3.59694C635.838 3.39797 633.464 3.71972 635.32 3.48281C639.105 2.99854 644.172 2.39336 648.054 1.99123C649.604 1.83006 648.545 1.92557 648.767 1.90213C651.895 1.57516 655.346 1.27812 657.105 1.11255C659.371 0.987855 658.988 0.938029 663.679 0.632585C664.051 0.609853 664.527 0.596567 663.097 0.69509C661.622 0.797706 659.61 0.938588 657.653 1.10637C657.198 1.14228 654.552 1.401 654.185 1.43952C651.33 1.72103 650.916 1.72102 650.776 1.73006C649.12 1.86029 645.921 2.2385 645.068 2.34037C641.154 2.79287 637.886 3.19262 634.67 3.6283C632.556 3.91695 632.353 3.9982 630.679 4.23044C625.118 5.01782 623.288 5.20696 618.051 6.1118C616.943 6.30775 618.013 6.20278 614.076 6.79244C613.829 6.82926 610.884 7.2633 609.179 7.59468C608.965 7.63616 608.976 7.65825 608.693 7.70918C606.803 8.05004 605.502 8.25912 603.456 8.6354C601.42 9.01041 598.96 9.47715 596.606 9.90986C595.189 10.1702 593.353 10.4666 592.668 10.5844C590.733 10.9153 588.735 11.3693 587.541 11.556C586.342 11.7425 588.656 11.2138 585.527 11.7959C585.426 11.8965 585.176 12.0294 585.006 12.1454C578.11 13.5215 571.445 14.8909 564.57 16.3932C563.725 16.5784 564.6 16.4393 563.694 16.6398C559.872 17.4873 556.505 18.2007 552.529 19.1215C549.466 19.8316 546.112 20.6706 542.902 21.4427C540.906 21.7812 536.162 22.9488 532.704 23.7739C531.492 24.0622 531.565 24.0078 530.701 24.2047C527.444 24.9504 528.994 24.6988 528.109 24.9344C524.312 25.9511 523.917 25.7593 519.422 26.88C519.184 26.9385 516.313 27.8158 515.915 27.9271C513.388 28.6294 515.482 27.9797 513.887 28.3696C510.966 29.0854 508.933 29.561 505.538 30.4812C504.546 30.7499 502.203 31.4618 500.248 31.8862C499.99 31.9421 500.117 31.8516 499.911 31.9016C496.188 32.8119 496.138 33.01 494.042 33.6237C491.945 34.2384 488.673 34.9766 487.999 35.1175C486.231 35.4884 489.321 34.7247 489.406 34.6931C490.475 34.2966 488.122 34.9372 486.285 35.4157C485.974 35.3098 483.429 35.9968 484.393 35.9096C484.503 35.8989 485.916 35.5049 486.285 35.4157C484.729 36.0134 481.937 36.7868 478.824 37.4468C477.363 37.7572 478.715 37.2929 474.338 38.5103C472.342 39.0667 473.149 38.985 471.399 39.4985C467.4 40.6734 462.218 41.9679 458.059 43.1419C456.563 43.5649 458.042 43.2334 457.021 43.5251C454.299 44.3039 451.975 44.8931 449.206 45.7012C448.958 45.7738 449.588 45.6821 448.734 45.9232C442.294 47.7449 436.689 49.2813 430.022 51.1902C426.868 52.0924 420.942 53.8522 417.688 54.7865C411.801 56.4755 404.725 58.4001 399.728 59.8977C396.535 60.8551 397.275 60.7374 395.936 61.198C393.202 62.1323 388.45 63.2948 387.83 63.4391C387.806 63.445 390.543 62.6168 389.065 62.9997C388.185 63.1503 387.861 63.4295 387.83 63.4391C387.504 63.5115 381.76 65.1768 380.718 65.5026C380.128 65.6868 380.486 65.6787 380.178 65.7729C372.751 68.0435 365.391 70.2392 357.77 72.3853C357.638 72.4214 357.806 72.2596 357.495 72.3454C353.295 73.4997 350.415 74.4551 346.748 75.5449C343.766 76.4348 340.927 77.1647 339.117 77.4741C338.712 77.5516 338.341 77.6167 337.999 77.6706C336.458 78.0484 335.08 78.3679 333.269 78.6891C333.083 78.7204 332.912 78.7472 332.755 78.7697C332.714 78.7756 332.681 78.78 332.635 78.7864C332.551 78.7988 332.471 78.8099 332.395 78.8197C332.243 78.8395 332.106 78.8543 331.981 78.8644C331.729 78.8832 331.54 78.8906 331.321 78.8562C331.287 78.8502 331.282 78.8501 331.217 78.8344C331.104 78.8022 330.948 78.7661 330.76 78.5723C330.56 78.3837 330.502 77.971 330.585 77.7752C330.656 77.5672 330.745 77.477 330.817 77.3995C330.89 77.3246 330.958 77.2709 331.03 77.2186C331.099 77.1694 331.08 77.1841 331.105 77.1671C331.139 77.145 331.174 77.1234 331.21 77.1019C331.494 76.9317 331.859 76.7535 332.292 76.5552C332.607 76.4135 332.826 76.3215 333.097 76.2071C333.619 75.9879 334.097 75.7781 334.49 75.5965C334.797 75.4511 335.001 75.3406 335.168 75.2438C335.496 75.0524 335.599 74.948 335.691 74.9073C341.62 72.3174 345.099 71.1106 351.285 68.6002C354.214 67.4193 360.002 64.9583 363.101 63.5632C365.558 62.4632 367.088 61.8363 369.315 60.7707C369.616 60.6263 369.266 60.6734 369.357 60.6269C371.803 59.3494 370.72 60.1334 371.257 59.9325C373.247 59.1675 374.334 58.765 377.546 57.0333C378.28 56.6382 380.143 55.2345 381.477 54.451C383.143 53.4666 382.551 53.9717 384.253 52.9085C384.401 52.8122 384.349 52.7586 385.413 52.0859C389.861 49.3955 397.035 43.5371 389.236 41.7305C388.588 41.5171 389.397 41.9149 388.425 41.6151C383.135 40.1583 377.37 39.8822 371.592 39.6127C370.361 39.563 371.135 39.4896 370.867 39.4543C369.23 39.2386 366.659 39.4667 366.216 39.4723C356.185 39.6 348.946 39.7125 338.225 40.4717C337.663 40.511 333.706 41.0437 331.778 40.952C331.65 40.9456 329.774 40.8416 328.084 41.1335C327.977 41.152 329.19 41.1821 327.091 41.3301C324.989 41.4781 321.455 41.8461 318.891 41.9301C318.035 41.9604 315.993 41.8951 313.356 42.3233C313.197 42.3493 309.088 43.1576 307.517 43.0092C307.259 42.9851 307.518 42.6411 304.169 43.1259C304.105 43.1353 304.059 43.1433 304.026 43.1503C303.746 43.2123 304.515 43.199 303.051 43.3804C300.561 43.6896 297.275 43.9207 294.288 44.347C293.766 44.4218 291.562 44.8473 289.782 44.8523C289.503 44.8531 290.018 44.6983 289.085 44.7747C284.764 45.1264 279.806 45.6607 275.285 46.0039C273.672 46.1267 274.478 45.8809 272.803 45.9887C271.109 46.0984 267.844 46.3518 266.041 46.5933C264.245 46.8342 266.234 46.9284 263.544 47.1928C263.2 47.2267 262.856 47.2602 262.513 47.2934C251.377 48.3722 240.34 49.1784 229.177 50.0827C227.457 50.2217 228.884 50.2014 226.365 50.411C217.439 51.1618 201.048 52.5312 193.162 52.8946C186.844 53.1909 194.838 52.4847 189.915 52.7758C187.454 52.9226 184.904 53.4144 184.335 53.464C178.925 53.9426 174.745 54.0864 169.849 54.444C168.838 54.5175 169.837 54.5788 168.979 54.6396C166.072 54.8468 162.608 55.0043 159.84 55.1771C158.579 55.256 158.816 55.3371 157.673 55.3957C154.734 55.5484 152.115 55.652 149.445 55.7021C149.202 55.7067 150.838 55.5045 148.811 55.6051C145.184 55.7846 141.347 55.8816 137.107 56.1379C135.935 56.2096 135.854 56.4285 133.467 56.3631C132.962 56.3478 133.66 56.076 130.592 56.3867C130.341 56.412 128.953 56.5345 127.478 56.6187C125.896 56.707 123.869 56.7562 122.797 56.6623C122.363 56.6148 120.326 56.4063 119.078 56.4045C118.904 56.4048 119.594 56.5369 118.536 56.5184C118.345 56.5148 118 56.5052 117.707 56.4945C117.409 56.4837 117.125 56.4712 116.857 56.4569C116.589 56.4426 116.335 56.4265 116.096 56.4085C115.977 56.3995 115.861 56.39 115.749 56.3801C115.693 56.3751 115.638 56.37 115.584 56.3648C115.501 56.3568 115.402 56.3464 115.315 56.3366C114.96 56.2967 114.649 56.2513 114.372 56.1956C114.234 56.1676 114.103 56.1371 113.977 56.1013C113.946 56.0923 113.915 56.083 113.884 56.0733C113.868 56.0684 113.853 56.0634 113.837 56.0583C113.81 56.0493 113.749 56.0284 113.705 56.0113C113.518 55.9354 113.324 55.8547 113.09 55.6363C112.86 55.4447 112.589 54.9025 112.715 54.4267C112.765 54.1976 112.877 54.0237 112.911 53.974C112.962 53.8982 113.014 53.8357 113.065 53.7817C113.271 53.5702 113.452 53.4678 113.643 53.3662C113.834 53.2679 114.036 53.1844 114.266 53.1012C114.374 53.0622 114.48 53.0261 114.595 52.9887C115.055 52.8404 115.613 52.6907 116.285 52.5326C116.79 52.4139 117.214 52.3219 117.747 52.2113C118.269 52.1036 118.837 51.9923 119.451 51.8773C119.991 51.776 120.403 51.7003 120.916 51.6085C122.003 51.416 120.339 51.5769 121.999 51.2909C124.691 50.8398 126.611 50.5623 129.577 50.1602C131.891 49.8507 134.606 49.5155 136.911 49.2464C138.467 49.0666 137.404 49.2928 137.518 49.2889C139.37 49.2261 140.509 48.8651 141.157 48.7745C145.491 48.1798 148.016 47.9998 151.932 47.5373C152.994 47.4129 152.229 47.3921 152.44 47.3595C154.624 47.0284 153.088 47.3853 154.363 47.2669C157.825 46.9485 162.289 46.4685 165.967 46.0789C167.3 45.9374 165.786 45.9726 166.987 45.847C174.345 45.0766 181.765 44.3692 189.268 43.7282C190.601 43.6154 189.769 43.782 190.047 43.7762C191.914 43.7422 194.696 43.2919 195.348 43.214C198.305 42.859 199.491 42.8286 202.202 42.5687C207.684 42.0433 213.419 41.5293 219.753 40.985C224.192 40.6033 228.266 40.2344 231.863 39.8891C236.254 39.4627 239.639 39.1097 243.159 38.7037C250.603 37.9195 259.503 36.3734 263.281 35.3907C258.364 33.5384 250.239 33.3204 243.027 32.8478C242.063 32.7978 243.034 32.9432 242.196 32.9015C231.502 32.382 221.023 32.134 210.206 32.0401C209.348 32.0331 210.586 32.126 209.205 32.1174C206.392 32.1005 202.6 32.0718 199.678 32.0388C198.282 32.0229 200.155 31.962 198.749 31.9479C195.479 31.9157 191.825 31.9152 188.346 31.9422C186.913 31.9536 189.078 32.0193 187.212 32.0282C174.199 32.0988 161.611 32.2938 148.441 32.531C147.551 32.547 146.767 32.4415 144.864 32.5159C144.722 32.5539 144.731 32.5938 144.669 32.6319C125.806 33.1424 107.138 33.8232 88.2391 34.8197C87.4427 34.8617 88.8214 34.8308 87.2796 34.9121C78.3607 35.3864 69.7168 35.9077 60.558 36.5033C59.6527 36.5629 60.1108 36.4778 57.449 36.6742C56.9747 36.7082 52.9909 37.0038 51.947 37.0928C51.805 37.1048 52.5452 37.0709 51.2407 37.1685C43.6795 37.7348 35.8175 38.3754 28.3385 39.0582C27.1392 39.1679 28.4147 39.0373 27.561 39.1158C21.4145 39.6837 14.8719 40.3546 8.95985 41.0131C5.03433 41.4552 6.48931 41.2858 4.42234 41.5251C4.12821 41.5587 1.74293 41.8475 1.62278 41.8626C1.30725 41.9002 2.45739 41.7542 1.98494 41.8107C1.90606 41.8197 -0.00141331 42.0638 0 42.0642C0 42.0642 0 42.0642 0 42.0642C0.000142177 42.0642 0.164898 42.0428 0.591056 41.9878C0.719503 41.9705 3.0238 41.6766 3.59833 41.6046C3.99645 41.554 3.27843 41.6426 4.09121 41.5396C4.90479 41.4365 5.80105 41.3268 7.16435 41.1592C8.53082 40.9921 7.92151 41.0592 10.6708 40.7305ZM342.967 72.4065C345.026 71.6976 345.188 71.2035 343.026 72.174C342.924 72.2207 342.862 72.4427 342.967 72.4065ZM571.443 14.7868C568.662 15.3011 566.783 15.8154 568.751 15.45C570.717 15.0846 572.29 14.6298 571.443 14.7868ZM600.171 9.07823C596.923 9.62672 596.444 9.89808 599.908 9.22292C600.109 9.18399 600.36 9.04627 600.171 9.07823ZM14.0671 40.4265C14.0349 40.4293 12.3338 40.6152 12.2824 40.6215C11.3698 40.7272 14.7988 40.3539 14.0671 40.4265ZM628.822 4.38106C627.791 4.50891 624.903 4.94912 626.157 4.78669C627.158 4.65446 630.103 4.21877 628.822 4.38106ZM342.766 39.0603C342.733 39.0552 341.439 39.1226 341.465 39.1585C341.565 39.2719 343.354 39.1379 342.766 39.0603ZM678.052 0.0362182C670.656 0.197632 666.324 0.42174 674.254 0.11504C675.723 0.0678135 671.084 0.22522 672.958 0.163368C676.384 0.0491775 678.609 0.00314732 681.937 0.000946658C682.547 -0.00590438 678.481 0.0186818 678.04 0.0364481C678.044 0.0363716 678.048 0.036295 678.052 0.0362182ZM344.308 72.3831C344.341 72.3757 346.039 71.7002 346.035 71.6962C346.876 71.2222 343.564 72.5404 344.308 72.3831ZM269.629 45.0704C269.537 45.0664 265.599 45.4121 265.421 45.4395C263.365 45.8604 271.423 45.1537 269.629 45.0704ZM429.961 50.3041C431.735 49.6951 433.91 49.0687 435.406 48.7758C433.583 49.2839 431.764 49.7983 429.961 50.3041Z" fill="#010436"/>
</svg>
